<svg xmlns="http://www.w3.org/2000/svg" version="1.1" xmlns:xlink="http://www.w3.org/1999/xlink" xmlns:svgjs="http://svgjs.com/svgjs" width="512" height="512" x="0" y="0" viewBox="0 0 64 64" style="enable-background:new 0 0 512 512" xml:space="preserve" class="hovered-paths"><g><path xmlns="http://www.w3.org/2000/svg" d="m35 15.43v4.73h-8.67c-1.66 0-3 1.35-3 3v9.27h-6.39l-5.94 4.88v-4.88h-1c-.55 0-1-.45-1-1v-16c0-.56.45-1 1-1h24c.55 0 1 .44 1 1z" fill="#000000" data-original="#000000" class="hovered-path"></path><path xmlns="http://www.w3.org/2000/svg" d="m55 23.16v18.63c0 .55-.45 1-1 1h-1v5.67l-6.9-5.67h-19.77c-.561 0-1-.45-1-1v-18.63c0-.55.439-1 1-1h27.67c.55 0 1 .45 1 1zm-11 3c1.29 0 1.29-2 0-2h-15.67c-1.29 0-1.29 2 0 2zm-4 4c1.29 0 1.29-2 0-2h-11.67c-1.29 0-1.29 2 0 2z" fill="#000000" data-original="#000000" class="hovered-path"></path></g></svg>